<svg width="12" height="12" viewBox="0 0 12 12" fill="none" xmlns="http://www.w3.org/2000/svg">
<path d="M10.375 0.75H1.625C1.39294 0.75 1.17038 0.842187 1.00628 1.00628C0.842187 1.17038 0.75 1.39294 0.75 1.625V10.375C0.75 10.6071 0.842187 10.8296 1.00628 10.9937C1.17038 11.1578 1.39294 11.25 1.625 11.25H10.375C10.6071 11.25 10.8296 11.1578 10.9937 10.9937C11.1578 10.8296 11.25 10.6071 11.25 10.375V1.625C11.25 1.39294 11.1578 1.17038 10.9937 1.00628C10.8296 0.842187 10.6071 0.75 10.375 0.75ZM8.93453 8.31547C8.97518 8.35612 9.00742 8.40437 9.02942 8.45748C9.05142 8.51059 9.06274 8.56751 9.06274 8.625C9.06274 8.68249 9.05142 8.73941 9.02942 8.79252C9.00742 8.84563 8.97518 8.89388 8.93453 8.93453C8.89388 8.97518 8.84563 9.00742 8.79252 9.02942C8.73941 9.05142 8.68249 9.06274 8.625 9.06274C8.56751 9.06274 8.51059 9.05142 8.45748 9.02942C8.40437 9.00742 8.35612 8.97518 8.31547 8.93453L6 6.61852L3.68453 8.93453C3.60244 9.01662 3.4911 9.06274 3.375 9.06274C3.2589 9.06274 3.14756 9.01662 3.06547 8.93453C2.98338 8.85244 2.93726 8.7411 2.93726 8.625C2.93726 8.5089 2.98338 8.39756 3.06547 8.31547L5.38148 6L3.06547 3.68453C2.98338 3.60244 2.93726 3.4911 2.93726 3.375C2.93726 3.2589 2.98338 3.14756 3.06547 3.06547C3.14756 2.98338 3.2589 2.93726 3.375 2.93726C3.4911 2.93726 3.60244 2.98338 3.68453 3.06547L6 5.38148L8.31547 3.06547C8.39756 2.98338 8.5089 2.93726 8.625 2.93726C8.7411 2.93726 8.85244 2.98338 8.93453 3.06547C9.01662 3.14756 9.06274 3.2589 9.06274 3.375C9.06274 3.4911 9.01662 3.60244 8.93453 3.68453L6.61852 6L8.93453 8.31547Z" fill="#F8F8F8"/>
</svg>
