<svg width="79" height="79" viewBox="0 0 79 79" fill="none" xmlns="http://www.w3.org/2000/svg">
<path d="M73.9875 0.75H5.0125C3.88201 0.75 2.79783 1.19908 1.99846 1.99846C1.19908 2.79783 0.75 3.88201 0.75 5.0125V73.9875C0.75 75.118 1.19908 76.2022 1.99846 77.0015C2.79783 77.8009 3.88201 78.25 5.0125 78.25H42.135V48.2188H32.06V36.5938H42.135V27.875C41.9263 25.8281 42.168 23.7602 42.843 21.8166C43.5181 19.8729 44.6102 18.1005 46.0428 16.6236C47.4754 15.1467 49.2137 14.0011 51.1359 13.2672C53.0582 12.5332 55.1176 12.2287 57.17 12.375C60.186 12.3564 63.2006 12.5117 66.1987 12.84V23.3025H60.0375C55.155 23.3025 54.225 25.6275 54.225 28.9988V36.4775H65.85L64.3387 48.1025H54.225V78.25H73.9875C74.5473 78.25 75.1015 78.1397 75.6187 77.9255C76.1358 77.7113 76.6057 77.3974 77.0015 77.0015C77.3974 76.6057 77.7113 76.1358 77.9255 75.6187C78.1397 75.1015 78.25 74.5473 78.25 73.9875V5.0125C78.25 4.45274 78.1397 3.89846 77.9255 3.38131C77.7113 2.86416 77.3974 2.39427 77.0015 1.99846C76.6057 1.60265 76.1358 1.28867 75.6187 1.07446C75.1015 0.860253 74.5473 0.75 73.9875 0.75Z" fill="#F8F8F8"/>
</svg>
