<svg width="79" height="79" viewBox="0 0 79 79" fill="none" xmlns="http://www.w3.org/2000/svg">
<path d="M23.225 0.75H55.775C68.175 0.75 78.25 10.825 78.25 23.225V55.775C78.25 61.7357 75.8821 67.4523 71.6672 71.6672C67.4523 75.8821 61.7357 78.25 55.775 78.25H23.225C10.825 78.25 0.75 68.175 0.75 55.775V23.225C0.75 17.2643 3.1179 11.5477 7.33278 7.33278C11.5477 3.1179 17.2643 0.75 23.225 0.75ZM22.45 8.5C18.7502 8.5 15.202 9.96973 12.5859 12.5859C9.96973 15.202 8.5 18.7502 8.5 22.45V56.55C8.5 64.2612 14.7387 70.5 22.45 70.5H56.55C60.2498 70.5 63.798 69.0303 66.4141 66.4141C69.0303 63.798 70.5 60.2498 70.5 56.55V22.45C70.5 14.7387 64.2612 8.5 56.55 8.5H22.45ZM59.8438 14.3125C61.1284 14.3125 62.3604 14.8228 63.2688 15.7312C64.1772 16.6396 64.6875 17.8716 64.6875 19.1562C64.6875 20.4409 64.1772 21.6729 63.2688 22.5813C62.3604 23.4897 61.1284 24 59.8438 24C58.5591 24 57.3271 23.4897 56.4187 22.5813C55.5103 21.6729 55 20.4409 55 19.1562C55 17.8716 55.5103 16.6396 56.4187 15.7312C57.3271 14.8228 58.5591 14.3125 59.8438 14.3125ZM39.5 20.125C44.6386 20.125 49.5667 22.1663 53.2002 25.7998C56.8337 29.4333 58.875 34.3614 58.875 39.5C58.875 44.6386 56.8337 49.5667 53.2002 53.2002C49.5667 56.8337 44.6386 58.875 39.5 58.875C34.3614 58.875 29.4333 56.8337 25.7998 53.2002C22.1663 49.5667 20.125 44.6386 20.125 39.5C20.125 34.3614 22.1663 29.4333 25.7998 25.7998C29.4333 22.1663 34.3614 20.125 39.5 20.125ZM39.5 27.875C36.4169 27.875 33.46 29.0998 31.2799 31.2799C29.0998 33.46 27.875 36.4169 27.875 39.5C27.875 42.5831 29.0998 45.54 31.2799 47.7201C33.46 49.9002 36.4169 51.125 39.5 51.125C42.5831 51.125 45.54 49.9002 47.7201 47.7201C49.9002 45.54 51.125 42.5831 51.125 39.5C51.125 36.4169 49.9002 33.46 47.7201 31.2799C45.54 29.0998 42.5831 27.875 39.5 27.875Z" fill="#F8F8F8"/>
</svg>
